# AST/ASF file generated using VICON BodyLanguage
# -----------------------------------------------
:version 1.10
:name VICON
:units
  mass 1.0
  length 0.45
  angle deg
:documentation
   .ast/.asf automatically generated from VICON data using
   VICON BodyBuilder and BodyLanguage model FoxedUp or BRILLIANT.MOD
:root
   order TX TY TZ RX RY RZ
   axis XYZ
   position 0 0 0  
   orientation 0 0 0 
:bonedata
  begin
     id 1 
     name lhipjoint
     direction 0.566809 -0.746272 0.349008 
     length 2.40479 
     axis 0 0 0  XYZ
  end
  begin
     id 2 
     name lfemur
     direction 0.34202 -0.939693 0  
     length 7.1578  
     axis 0 0 20  XYZ
    dof rx ry rz
    limits (-160.0 20.0)
           (-70.0 70.0)
           (-60.0 70.0)
  end
  begin
     id 3 
     name ltibia
     direction 0.34202 -0.939693 0   
     length 7.49137   
     axis 0 0 20   XYZ
    dof rx
    limits (-10.0 170.0)
  end
  begin
     id 4 
     name lfoot
     direction 0.0665746 -0.182912 0.980873   
     length 2.36784   
     axis -90 7.62852e-016 20   XYZ
    dof rx rz
    limits (-45.0 90.0)
           (-70.0 20.0)
  end
  begin
     id 5 
     name ltoes
     direction 1.53601e-011 -4.22058e-011 1   
     length 1.18966   
     axis -90 7.62852e-016 20   XYZ
    dof rx
    limits (-90.0 20.0)
  end
  begin
     id 6 
     name rhipjoint
     direction -0.550236 -0.756381 0.353735   
     length 2.37265  
     axis 0 0 0  XYZ 
  end
  begin
     id 7 
     name rfemur
     direction -0.34202 -0.939693 0   
     length 7.43386   
     axis 0 0 -20   XYZ
    dof rx ry rz
    limits (-160.0 20.0)
           (-70.0 70.0)
           (-70.0 60.0)
  end
  begin
     id 8 
     name rtibia
     direction -0.34202 -0.939693 0   
     length 7.50908   
     axis 0 0 -20   XYZ
    dof rx
    limits (-10.0 170.0)
 end
 begin
     id 9 
     name rfoot
     direction -0.0683029 -0.187661 0.979856   
     length 2.41173  
     axis -90 -7.62852e-016 -20   XYZ
    dof rx rz
    limits (-45.0 90.0)
           (-20.0 70.0)
  end
  begin
     id 10 
     name rtoes
     direction -1.53528e-011 -4.21968e-011 1   
     length 1.21082   
     axis -90 -7.62852e-016 -20   XYZ
    dof rx
    limits (-90.0 20.0)
  end
  begin
     id 11 
     name lowerback
     direction 0.013823 0.995423 -0.0945635   
     length 2.04495   
     axis 0 0 0   XYZ
    dof rx ry rz
    limits (-20.0 45.0)
           (-30.0 30.0)
           (-30.0 30.0)
  end
  begin
     id 12 
     name upperback
     direction 0.0276657 0.9994 -0.020853   
     length 2.05008   
     axis 0 0 0   XYZ
    dof rx ry rz
    limits (-20.0 45.0)
           (-30.0 30.0)
           (-30.0 30.0)
  end
  begin
     id 13 
     name thorax
     direction 0.019782 0.999531 0.0233827   
     length 2.06488   
     axis 0 0 0   XYZ
    dof rx ry rz
    limits (-20.0 45.0)
           (-30.0 30.0)
           (-30.0 30.0)
  end
  begin
     id 14 
     name lowerneck
     direction -0.0308541 0.994709 0.0979874   
     length 1.75553   
     axis 0 0 0   XYZ
    dof rx ry rz
    limits (-20.0 45.0)
           (-30.0 30.0)
           (-30.0 30.0)
  end
  begin
     id 15 
     name upperneck
     direction 0.0588398 0.995804 -0.0700903   
     length 1.76878   
     axis 0 0 0   XYZ
    dof rx ry rz
    limits (-20.0 45.0)
           (-30.0 30.0)
           (-30.0 30.0)
  end
  begin
     id 16
     name head
     direction 0.0209966 0.999159 -0.0352225  
     length 1.77193  
     axis 0 0 0   XYZ
    dof rx ry rz
    limits (-20.0 45.0)
           (-30.0 30.0)
           (-30.0 30.0)
  end
  begin
     id 17 
     name lclavicle
     direction 0.938182 0.335073 -0.0868338  
     length 3.58396  
     axis 0 0 0   XYZ
    dof ry rz
    limits (-20.0 10.0)
           (0.0 20.0)
  end
  begin
     id 18 
     name lhumerus
     direction 1 -4.48971e-011 -1.26313e-017   
     length 4.983   
     axis 180 -30 -90   XYZ
    dof rx ry rz
    limits (-60.0 90.0)
           (-90.0 90.0)
           (-90.0 90.0)
  end
  begin
     id 19
     name lradius
     direction 1 -4.48948e-011 -5.89033e-027   
     length 3.48356   
     axis 180 -30 -90   XYZ
    dof rx
    limits (-10.0 170.0)
  end
  begin
     id 20
     name lwrist
     direction 1 -4.48977e-011 -1.48983e-026   
     length 1.74178   
     axis 9.0955e-015 90 90   XYZ
    dof ry
    limits (-180.0 0.0)
 end
  begin
     id 21 
     name lhand
     direction 1 -4.49046e-011 -2.98066e-026   
     length 0.715259   
     axis 1.90115e-014 90 90   XYZ
    dof rx rz
    limits (-90.0 90.0)
           (-45.0 45.0)
  end
  begin
     id 22 
     name lfingers
     direction 1 -4.48907e-011 -5.95731e-026   
     length 0.576661   
     axis 3.80223e-014 90 90   XYZ
    dof rx
    limits (0.0 90.0)
  end
  begin
     id 23
     name lthumb
     direction 0.707107 -6.34963e-011 0.707107   
     length 0.827973   
     axis -90 45 -3.84942e-014   XYZ
    dof rx rz
    limits (-45.0 45.0)
           (-45.0 45.0)
  end
  begin
     id 24 
     name rclavicle
     direction -0.909637 0.398485 -0.11735   
     length 3.44819  
     axis 0 0 0   XYZ 
    dof ry rz
    limits (-10.0 20.0)
           (-20.0 0.0)
  end
  begin
     id 25 
     name rhumerus
     direction -1 -4.48978e-011 -1.09333e-027  
     length 5.2419   
     axis 180 30 90   XYZ
    dof rx ry rz
    limits (-90.0 60.0)
           (-90.0 90.0)
           (-90.0 90.0)
  end
  begin
     id 26 
     name rradius
     direction -1 -4.48953e-011 -7.61841e-027   
     length 3.44417   
     axis 180 30 90   XYZ
    dof rx
    limits (-10.0 170.0)
  end
  begin
     id 27 
     name rwrist
     direction -1 -4.48977e-011 -1.48983e-026   
     length 1.72209   
     axis 9.0955e-015 -90 -90   XYZ
    dof ry
    limits (-180.0 0.0)
  end
  begin
     id 28
     name rhand
     direction -1 -4.49027e-011 -2.98038e-026   
     length 0.622529   
     axis 1.90115e-014 -90 -90   XYZ
    dof rx rz
    limits (-90.0 90.0)
           (-45.0 45.0)
  end
  begin
     id 29
     name rfingers
     direction -1 -4.48838e-011 -5.95531e-026   
     length 0.501899   
     axis 3.80223e-014 -90 -90   XYZ
    dof rx
    limits (0.0 90.0)
  end
  begin
     id 30
     name rthumb
     direction -0.707107 -6.34937e-011 0.707107   
     length 0.720629   
     axis -90 -45 3.84942e-014   XYZ
    dof rx rz
    limits (-45.0 45.0)
           (-45.0 45.0)
  end
:hierarchy
  begin
    root lhipjoint rhipjoint lowerback
    lhipjoint lfemur
    lfemur ltibia
    ltibia lfoot
    lfoot ltoes
    rhipjoint rfemur
    rfemur rtibia
    rtibia rfoot
    rfoot rtoes
    lowerback upperback
    upperback thorax
    thorax lowerneck lclavicle rclavicle
    lowerneck upperneck
    upperneck head
    lclavicle lhumerus
    lhumerus lradius
    lradius lwrist
    lwrist lhand lthumb
    lhand lfingers
    rclavicle rhumerus
    rhumerus rradius
    rradius rwrist
    rwrist rhand rthumb
    rhand rfingers
  end

#!OML:ASF F:\VICON\USERDATA\Patient Classification 1\PLAYGROUND\JustinFriday\JustinFriday.ASF
:FULLY-SPECIFIED
:DEGREES
987
root -18.0563 30.4285 -9.12619 264.449 83.697 -122.068
lowerback 42.2894 2.30752 -7.2826
upperback 10.4393 1.75986 4.24051
thorax -8.68122 1.24076 7.53156
lowerneck 16.7706 -21.2619 -16.8269
upperneck -15.4963 -29.6035 39.9714
head 2.2054 -17.6886 14.4024
rclavicle -3.89618e-014 3.89618e-014
rhumerus 25.768 16.825 -59.4102
rradius 76.5232
rwrist 7.95152
rhand -34.6379 -13.3604
rfingers 7.12502
rthumb -7.79529 -43.1967
lclavicle -3.89618e-014 3.89618e-014
lhumerus 23.0196 -9.04951 59.3902
lradius 75.1585
lwrist -22.8253
lhand -13.7345 -18.5592
lfingers 7.12502
lthumb 12.3851 11.054
rfemur -39.378 3.45456 29.0353
rtibia 33.6588
rfoot -36.2538 -6.60779
rtoes 17.3523
lfemur -42.3812 10.121 -18.2736
ltibia 35.6112
lfoot -34.8057 -1.91185
ltoes -10.928
988
root -18.0945 30.4536 -9.00844 268.946 83.5708 -117.644
lowerback 41.2905 3.55412 -8.71052
upperback 10.8138 2.87648 5.05465
thorax -8.23446 1.71144 8.71716
lowerneck 16.6428 -21.8628 -16.2802
upperneck -16.4399 -30.1345 39.5143
head 1.90865 -17.9634 14.0715
rclavicle 1.19271e-014 7.0171e-014
rhumerus 25.6771 16.0237 -59.0697
rradius 76.6594
rwrist 8.24907
rhand -34.2723 -13.6577
rfingers 7.12502
rthumb -7.44238 -43.5068
lclavicle 1.19271e-014 7.0171e-014
lhumerus 24.4888 -8.80423 60.8531
lradius 74.3555
lwrist -23.4694
lhand -12.8069 -19.4026
lfingers 7.12502
lthumb 13.2793 10.1543
rfemur -39.3247 5.52836 29.0507
rtibia 33.4912
rfoot -36.0998 -8.75669
rtoes 15.294
lfemur -42.2423 8.92434 -16.7628
ltibia 35.7036
lfoot -34.8778 -0.349711
ltoes -9.79675
989
root -18.1602 30.4602 -8.98152 268.9 83.2562 -117.53
lowerback 41.2854 3.98873 -8.73219
upperback 10.727 3.45425 5.59152
thorax -8.50039 1.98112 9.0705
lowerneck 17.8773 -21.7974 -17.2978
upperneck -17.0602 -30.2685 40.0278
head 1.87373 -18.1677 14.5235
rclavicle -5.88403e-014 -2.56432e-014
rhumerus 25.8415 15.6555 -58.5196
rradius 75.9362
rwrist 8.26051
rhand -34.1109 -13.7787
rfingers 7.12502
rthumb -7.28659 -43.6333
lclavicle -5.88403e-014 -2.56432e-014
lhumerus 25.2051 -9.08638 61.8748
lradius 74.0607
lwrist -23.6033
lhand -11.9126 -18.9331
lfingers 7.12502
lthumb 14.1412 10.5656
rfemur -39.2617 5.64547 29.4867
rtibia 33.3621
rfoot -36.213 -8.40055
rtoes 15.8043
lfemur -42.2039 8.1818 -15.8237
ltibia 35.8425
lfoot -35.112 -0.0013098
ltoes -8.42557
990
root -18.2384 30.4597 -9.02126 271.17 82.7726 -115.393
lowerback 41.2745 3.83997 -8.10514
upperback 10.5945 3.50933 5.63879
thorax -8.6514 2.01015 8.76867
lowerneck 17.7952 -22.0442 -17.1002
upperneck -17.2937 -30.5249 40.0208
head 1.85622 -18.3041 14.4238
rclavicle -1.90833e-014 -4.96962e-015
rhumerus 26.3358 15.3207 -58.7104
rradius 76.2391
rwrist 8.18955
rhand -33.4111 -14.189
rfingers 7.12502
rthumb -6.61113 -44.0658
lclavicle -1.90833e-014 -4.96962e-015
lhumerus 25.7318 -8.87857 61.9902
lradius 73.7826
lwrist -23.4991
lhand -11.4298 -18.4481
lfingers 7.12502
lthumb 14.6064 11.0176
rfemur -39.4447 5.67558 30.01
rtibia 33.0303
rfoot -35.9683 -8.36761
rtoes 15.2962
lfemur -42.5217 8.03007 -14.7677
ltibia 36.0626
lfoot -34.9604 -6.27305
ltoes 6.21745
991
root -18.3305 30.4287 -8.98103 267.525 82.7347 -118.673
lowerback 41.5939 3.87425 -8.38941
upperback 10.7138 3.46244 5.74799
thorax -8.61946 1.98993 9.05114
lowerneck 17.7165 -22.0791 -17.0493
upperneck -17.4738 -30.5225 40.4004
head 1.89817 -18.3497 14.5352
rclavicle 3.65764e-014 -2.54444e-014
rhumerus 26.9943 15.2323 -58.1091
rradius 76.194
rwrist 7.32889
rhand -33.2589 -13.7229
rfingers 7.12502
rthumb -6.4642 -43.6042
lclavicle 3.65764e-014 -2.54444e-014
lhumerus 26.6781 -8.6467 61.8144
lradius 73.3178
lwrist -23.3659
lhand -11.1742 -18.6613
lfingers 7.12502
lthumb 14.8527 10.7864
rfemur -39.4847 5.35192 30.1425
rtibia 33.1255
rfoot -35.9026 -8.88072
rtoes 14.9093
lfemur -42.9766 10.1709 -15.78
ltibia 36.1977
lfoot -33.9145 -10.0694
ltoes 9.39559
992
root -18.4078 30.3986 -8.97101 263.766 81.9896 -122.567
lowerback 41.3553 3.23652 -7.93495
upperback 10.8171 2.91987 5.84414
thorax -8.32896 1.73014 9.16585
lowerneck 16.9991 -21.8875 -16.573
upperneck -16.8827 -30.1834 39.8047
head 1.85958 -18.052 14.2562
rclavicle -1.82882e-014 -6.08281e-014
rhumerus 27.8633 15.5576 -57.9778
rradius 76.0796
rwrist 6.8344
rhand -32.5165 -12.0411
rfingers 7.12502
rthumb -5.74741 -41.9431
lclavicle -1.82882e-014 -6.08281e-014
lhumerus 27.0202 -7.71936 61.1687
lradius 73.0653
lwrist -23.0038
lhand -10.9597 -18.5841
lfingers 7.12502
lthumb 15.0593 10.8482
rfemur -40.0031 4.87971 30.8565
rtibia 33.245
rfoot -36.0629 -8.80258
rtoes 15.539
lfemur -43.9434 11.7921 -16.6234
ltibia 36.0663
lfoot -35.0172 -4.07812
ltoes -8.95088
993
root -18.483 30.3964 -8.97002 255.639 82.1474 -131.099
lowerback 40.8399 2.28022 -8.08527
upperback 10.6644 1.68797 5.60296
thorax -8.08342 1.15844 9.52136
lowerneck 16.7921 -21.4767 -16.4904
upperneck -15.9938 -29.7306 39.1226
head 1.84641 -17.6992 14.0882
rclavicle -3.49861e-014 -3.85642e-014
rhumerus 29.1304 16.6106 -57.7952
rradius 75.8041
rwrist 5.75919
rhand -32.9276 -12.3603
rfingers 7.12502
rthumb -6.14432 -42.2512
lclavicle -3.49861e-014 -3.85642e-014
lhumerus 26.5744 -6.66625 60.0615
lradius 73.0646
lwrist -22.2235
lhand -10.567 -18.3538
lfingers 7.12502
lthumb 15.4375 11.0497
rfemur -40.9561 5.20996 29.735
rtibia 33.6812
rfoot -36.5976 -9.30174
rtoes 17.7239
lfemur -44.7359 10.3302 -17.4466
ltibia 35.9489
lfoot -35.0466 1.34477
ltoes -19.0707
994
root -18.5698 30.436 -9.00156 251.061 83.3548 -134.89
lowerback 41.7151 2.40371 -8.05923
upperback 10.651 1.78799 5.33706
thorax -8.35922 1.23121 9.15133
lowerneck 17.0285 -21.7637 -17.3814
upperneck -16.3878 -30.3233 39.5888
head 2.12708 -18.029 14.1886
rclavicle -2.78299e-014 -1.35174e-014
rhumerus 29.6695 15.7711 -57.9127
rradius 74.7206
rwrist 6.27366
rhand -33.4243 -11.0835
rfingers 7.12502
rthumb -6.62385 -40.9599
lclavicle -2.78299e-014 -1.35174e-014
lhumerus 27.7408 -7.2122 60.3909
lradius 72.8074
lwrist -21.5959
lhand -9.80538 -18.4169
lfingers 7.12502
lthumb 16.1711 10.9285
rfemur -40.5042 4.64936 28.2968
rtibia 33.8717
rfoot -36.7317 -8.57693
rtoes 18.8655
lfemur -43.0729 6.00127 -15.9291
ltibia 35.6406
lfoot -33.9699 -8.62498
ltoes 11.9608
995
root -18.711 30.3493 -9.12867 266.328 83.8551 -118.623
lowerback 43.4461 2.80226 -7.71563
upperback 10.4386 2.21436 4.82177
thorax -9.13428 1.46217 8.17827
lowerneck 17.0126 -21.6137 -16.9571
upperneck -16.5777 -29.9395 39.7049
head 1.92082 -17.8838 14.3152
rclavicle -7.95139e-015 4.37326e-014
rhumerus 30.3309 15.459 -57.694
rradius 74.6099
rwrist 5.69983
rhand -33.357 -10.2382
rfingers 7.12502
rthumb -6.55886 -40.1166
lclavicle -7.95139e-015 4.37326e-014
lhumerus 28.6237 -6.68255 60.9618
lradius 71.8962
lwrist -22.1799
lhand -9.27258 -18.6909
lfingers 7.12502
lthumb 16.684 10.6121
rfemur -40.2069 3.45447 28.9041
rtibia 33.9774
rfoot -35.8466 -6.3161
rtoes 17.9258
lfemur -42.997 10.08 -18.3866
ltibia 35.5973
lfoot -34.6812 -3.00483
ltoes -5.21679
996
root -18.8218 30.3411 -9.14116 265.255 84.1032 -119.181
lowerback 44.4008 2.69963 -7.45405
upperback 10.2602 2.11201 4.55417
thorax -9.56032 1.44168 7.77234
lowerneck 17.8059 -21.7922 -17.4283
upperneck -17.0285 -30.3192 40.4817
head 2.03841 -18.2214 14.6498
rclavicle 1.98785e-014 -5.96354e-015
rhumerus 30.7481 15.0781 -57.6816
rradius 74.4866
rwrist 5.17351
rhand -32.9928 -11.347
rfingers 7.12502
rthumb -6.20727 -41.2361
lclavicle 1.98785e-014 -5.96354e-015
lhumerus 29.702 -6.60383 61.5421
lradius 70.8866
lwrist -23.0223
lhand -9.08648 -18.7602
lfingers 7.12502
lthumb 16.8632 10.5276
rfemur -40.1128 2.9203 28.8069
rtibia 33.9662
rfoot -35.5329 -6.49877
rtoes 17.0872
lfemur -42.4188 6.38093 -17.0504
ltibia 35.6291
lfoot -34.9831 -0.286641
ltoes -3.17112
997
root -18.9264 30.345 -9.14769 263.804 83.8274 -120.524
lowerback 44.7665 2.72908 -7.28413
upperback 10.0991 2.22789 4.80367
thorax -9.88436 1.50292 7.90271
lowerneck 17.165 -21.2431 -17.8297
upperneck -16.4149 -29.6538 40.8445
head 2.28251 -17.8239 14.8689
rclavicle 8.74653e-015 8.54774e-015
rhumerus 31.1605 14.848 -57.3778
rradius 74.1726
rwrist 5.02551
rhand -32.5552 -12.473
rfingers 7.12502
rthumb -5.78479 -42.374
lclavicle 8.74653e-015 8.54774e-015
lhumerus 30.3633 -6.65725 61.5855
lradius 70.3891
lwrist -22.9635
lhand -8.89357 -18.4504
lfingers 7.12502
lthumb 17.0489 10.8215
rfemur -40.5081 2.71226 29.1011
rtibia 34.1679
rfoot -35.4798 -6.96572
rtoes 16.2255
lfemur -42.8004 4.24058 -15.608
ltibia 36.0534
lfoot -35.4009 -3.07075
ltoes 9.09521
998
root -19.0144 30.2874 -9.1513 263.707 83.252 -120.269
lowerback 45.086 2.76928 -7.16405
upperback 10.0624 2.37035 5.16465
thorax -10.0682 1.56883 8.17186
lowerneck 17.4707 -21.8176 -17.5807
upperneck -16.8221 -30.3895 40.4465
head 2.19045 -18.1987 14.5558
rclavicle 3.65764e-014 7.53394e-014
rhumerus 31.8256 14.7469 -57.2834
rradius 73.4391
rwrist 5.18493
rhand -32.089 -11.8738
rfingers 7.12502
rthumb -5.3347 -41.7867
lclavicle 3.65764e-014 7.53394e-014
lhumerus 31.0122 -6.55239 61.9353
lradius 69.5687
lwrist -23.1998
lhand -8.88723 -18.1079
lfingers 7.12502
lthumb 17.055 11.1635
rfemur -40.5344 3.04114 29.5548
rtibia 34.2769
rfoot -35.5418 -7.90415
rtoes 15.3398
lfemur -42.9267 5.54161 -15.7682
ltibia 36.1113
lfoot -35.0354 -1.72889
ltoes 3.13712
999
root -19.0965 30.2366 -9.16029 264.338 83.388 -119.335
lowerback 45.0659 2.88726 -6.56071
upperback 10.1538 2.7807 5.09024
thorax -10.0114 1.75049 7.58275
lowerneck 18.6478 -21.8003 -17.5741
upperneck -18.0668 -30.1836 41.0654
head 1.73998 -18.3346 15.0984
rclavicle 4.65156e-014 -2.24627e-014
rhumerus 32.31 13.4738 -57.5481
rradius 72.2466
rwrist 5.68771
rhand -31.5311 -12.2183
rfingers 7.12502
rthumb -4.79601 -42.144
lclavicle 4.65156e-014 -2.24627e-014
lhumerus 32.568 -7.275 63.0036
lradius 68.7384
lwrist -23.802
lhand -8.74338 -17.9276
lfingers 7.12502
lthumb 17.1934 11.3318
rfemur -40.6499 1.24905 30.205
rtibia 34.2837
rfoot -35.3969 -6.53685
rtoes 14.4697
lfemur -43.2674 8.62993 -17.4878
ltibia 36.1179
lfoot -34.9157 -2.63885
ltoes -1.72227
1000
root -19.1866 30.2309 -9.16211 266.698 83.375 -117.107
lowerback 44.8948 3.13258 -7.45286
upperback 10.1557 2.71739 5.35285
thorax -9.99071 1.71905 8.37482
lowerneck 17.9595 -21.6736 -16.8519
upperneck -17.9058 -29.7692 40.313
head 1.4707 -18.0146 14.7925
rclavicle -8.34896e-015 -4.51241e-014
rhumerus 33.1652 13.8125 -57.193
rradius 72.4043
rwrist 5.21942
rhand -30.9857 -13.0782
rfingers 7.12502
rthumb -4.26938 -43.0152
lclavicle -8.34896e-015 -4.51241e-014
lhumerus 32.7111 -6.13965 63.0788
lradius 68.3953
lwrist -23.8743
lhand -8.52524 -17.6507
lfingers 7.12502
lthumb 17.4034 11.5902
rfemur -41.0159 4.3125 28.9725
rtibia 34.3255
rfoot -35.8408 -8.29571
rtoes 16.8986
lfemur -43.2801 5.85768 -16.1501
ltibia 36.0685
lfoot -34.975 1.29353
ltoes -3.78568
1001
root -19.271 30.2739 -9.14702 268.299 82.894 -115.519
lowerback 44.3921 3.28615 -7.20002
upperback 10.2592 3.07818 5.62134
thorax -9.82432 1.86852 8.38552
lowerneck 17.5572 -22.0161 -16.4603
upperneck -17.8926 -30.1226 40.0822
head 1.51515 -18.1459 14.506
rclavicle -2.0276e-014 1.19271e-015
rhumerus 33.8576 13.3079 -56.8763
rradius 71.8648
rwrist 5.20745
rhand -30.4581 -13.3173
rfingers 7.12502
rthumb -3.7598 -43.2639
lclavicle -2.0276e-014 1.19271e-015
lhumerus 33.604 -6.08607 63.5211
lradius 67.623
lwrist -23.7221
lhand -8.0907 -17.4993
lfingers 7.12502
lthumb 17.8216 11.704
rfemur -41.3421 3.95671 29.5538
rtibia 34.4239
rfoot -36.4168 -4.65435
rtoes 22.5397
lfemur -43.077 3.39458 -13.7008
ltibia 35.9368
lfoot -35.492 -5.25973
ltoes 16.6762
